<svg width="80" height="80" viewBox="0 0 80 80" fill="none" xmlns="http://www.w3.org/2000/svg">
<circle cx="40" cy="40" r="40" fill="#51A44A"/>
<path d="M40 58C44.7739 58 49.3523 56.1036 52.7279 52.7279C56.1036 49.3523 58 44.7739 58 40C58 35.2261 56.1036 30.6477 52.7279 27.2721C49.3523 23.8964 44.7739 22 40 22C35.2261 22 30.6477 23.8964 27.2721 27.2721C23.8964 30.6477 22 35.2261 22 40C22 44.7739 23.8964 49.3523 27.2721 52.7279C30.6477 56.1036 35.2261 58 40 58ZM40 17.5C42.9547 17.5 45.8806 18.082 48.6104 19.2127C51.3402 20.3434 53.8206 22.0008 55.9099 24.0901C57.9992 26.1794 59.6566 28.6598 60.7873 31.3896C61.918 34.1194 62.5 37.0453 62.5 40C62.5 45.9674 60.1295 51.6903 55.9099 55.9099C51.6903 60.1295 45.9674 62.5 40 62.5C27.5575 62.5 17.5 52.375 17.5 40C17.5 34.0326 19.8705 28.3097 24.0901 24.0901C28.3097 19.8705 34.0326 17.5 40 17.5ZM41.125 28.75V40.5625L51.25 46.57L49.5625 49.3375L37.75 42.25V28.75H41.125Z" fill="#DEEBE1"/>
</svg>
