<svg width="40" height="40" viewBox="0 0 40 40" fill="none" xmlns="http://www.w3.org/2000/svg">
<path d="M20.5 5C28.5084 5 35 11.4916 35 19.5C35 27.5083 28.5084 34 20.5 34C18.0321 34.0035 15.6044 33.3745 13.4487 32.173L13.0064 31.9149L8.61001 33.2083C8.37076 33.2788 8.11748 33.287 7.87416 33.2322C7.63084 33.1774 7.40556 33.0613 7.21966 32.895C7.03376 32.7287 6.89342 32.5177 6.81193 32.282C6.73044 32.0463 6.7105 31.7936 6.75401 31.548L6.79171 31.39L8.08511 26.9936C6.71784 24.7334 5.99665 22.1415 6.00001 19.5C6.00001 11.4916 12.4917 5 20.5 5ZM20.5 7.9C18.4231 7.89962 16.3841 8.45688 14.5961 9.51358C12.8081 10.5703 11.3365 12.0877 10.3352 13.9073C9.33381 15.7269 8.83935 17.7819 8.90343 19.8579C8.96751 21.9338 9.58778 23.9545 10.6995 25.7089C10.9866 26.1613 11.1098 26.7181 11.0127 27.2705L10.9561 27.5069L10.3167 29.6833L12.4931 29.0439C13.121 28.8583 13.7735 28.9714 14.2911 29.3005C15.8112 30.263 17.5343 30.8587 19.3243 31.0406C21.1142 31.2224 22.9219 30.9854 24.6045 30.3483C26.2871 29.7112 27.7984 28.6914 29.019 27.3696C30.2396 26.0477 31.136 24.4601 31.6373 22.7322C32.1386 21.0043 32.2311 19.1834 31.9075 17.4136C31.5839 15.6438 30.8531 13.9735 29.7727 12.5347C28.6924 11.096 27.2922 9.92831 25.6829 9.12392C24.0736 8.31953 22.2992 7.90051 20.5 7.9ZM16.2979 12.5168C16.4586 12.448 16.6343 12.4218 16.8081 12.4409C16.9819 12.4599 17.1477 12.5236 17.2897 12.6255C18.0205 13.1591 18.6005 13.8754 19.0993 14.5743L19.5735 15.2616L19.7953 15.5879C19.9238 15.7749 19.9869 15.9991 19.9748 16.2256C19.9628 16.4522 19.8762 16.6684 19.7286 16.8407L19.6199 16.9509L18.2801 17.9456C18.2163 17.9929 18.1715 18.0613 18.1537 18.1387C18.1359 18.216 18.1462 18.2972 18.1829 18.3675C18.4874 18.9185 19.0254 19.7407 19.6431 20.3584C20.2622 20.9761 21.1221 21.5503 21.7108 21.8881C21.8384 21.9606 21.9921 21.9374 22.0965 21.8432L22.1516 21.7779L23.023 20.4512C23.1827 20.2378 23.4191 20.0946 23.6822 20.0519C23.9453 20.0092 24.2148 20.0702 24.4339 20.2221L25.2212 20.7716C26.0042 21.3299 26.7568 21.9302 27.3527 22.6914C27.463 22.8345 27.5331 23.0044 27.5557 23.1836C27.5784 23.3628 27.5529 23.5448 27.4818 23.7108C26.9076 25.0506 25.4532 26.1917 23.9423 26.1366L23.7118 26.1221L23.4348 26.096L23.2782 26.0757L22.9331 26.0177C21.5933 25.7654 19.4459 25.0056 17.2201 22.7813C14.9958 20.5556 14.236 18.4081 13.9837 17.0683L13.9257 16.7232L13.8895 16.4216L13.8706 16.1679L13.8648 16.0591C13.8097 14.5453 14.9567 13.091 16.2979 12.5168Z" fill="#326736"/>
</svg>
