<svg width="24" height="26" viewBox="0 0 24 26" fill="none" xmlns="http://www.w3.org/2000/svg">
<path fill-rule="evenodd" clip-rule="evenodd" d="M12.7277 24.9646C19.0163 24.5885 24 19.3694 24 12.9863C24 11.3556 23.6747 9.80087 23.0855 8.38344C23.0119 8.46905 22.9303 8.5511 22.8409 8.62957C22.3493 9.06008 21.8143 9.27534 21.2359 9.27534C21.019 9.27534 20.4913 9.15425 19.6526 8.91209C18.8284 8.65648 18.0983 8.52867 17.462 8.52867C16.5945 8.52867 15.8828 8.95582 15.3333 9.38633C14.7839 9.80338 14.437 10.5522 14.1333 11.3863C14.0979 11.4837 14.0627 11.5786 14.028 11.6723C13.7652 12.3813 13.5301 13.0159 13.4279 14.0379C13.3122 15.1814 13.2544 16.5806 13.2544 18.2353V22.8364C13.2544 23.7176 13.0788 24.427 12.7277 24.9646ZM7.48511 24.108C3.09526 22.3242 0 18.0167 0 12.9863C0 6.35891 5.37258 0.986328 12 0.986328C15.0352 0.986328 17.8072 2.11316 19.9204 3.97131C19.3617 3.84799 18.7953 3.78633 18.2212 3.78633C16.9777 3.78633 15.98 4.07558 15.2281 4.65408C14.4907 5.23257 13.7677 6.08687 13.0592 7.21696C13.0158 6.08687 12.7772 5.23257 12.3435 4.65408C11.9097 4.07558 11.2012 3.78633 10.218 3.78633C8.29487 3.78633 7.33333 5.02404 7.33333 7.49948V22.8364C7.33333 23.3098 7.38393 23.7337 7.48511 24.108Z" fill="#FAF3DC"/>
<ellipse cx="18.766" cy="21.8223" rx="3.19149" ry="3.19149" fill="#F1C40F"/>
</svg>
